<?xml version="1.0" encoding="UTF-8"?>
<svg width="30mm" height="30mm" version="1.1" viewBox="0 0 106.29921 106.29921" xmlns="http://www.w3.org/2000/svg" xmlns:xlink="http://www.w3.org/1999/xlink">
 <defs>
  <pattern id="ak" patternTransform="scale(.9625 .85)" xlink:href="#a"/>
  <pattern id="aj" patternTransform="scale(.7875 .9625)" xlink:href="#a"/>
  <pattern id="ai" patternTransform="scale(.94903 1.0021)" xlink:href="#a"/>
  <pattern id="ah" patternTransform="scale(.81645 .82529)" xlink:href="#a"/>
  <pattern id="ag" patternTransform="scale(.96671 .98439)" xlink:href="#a"/>
  <pattern id="af" patternTransform="scale(.8375 .7875)" xlink:href="#a"/>
  <pattern id="ae" patternTransform="scale(.8875 .9625)" xlink:href="#a"/>
  <pattern id="ad" patternTransform="scale(.91368 1.0286)" xlink:href="#a"/>
  <pattern id="ac" patternTransform="scale(.86064 .87832)" xlink:href="#a"/>
  <pattern id="ab" patternTransform="scale(.8875 .925)" xlink:href="#a"/>
  <pattern id="aa" patternTransform="scale(.9625)" xlink:href="#a"/>
  <pattern id="z" patternTransform="scale(.875 .84375)" xlink:href="#a"/>
  <pattern id="y" patternTransform="matrix(.85 0 0 .74375 -1.3125 -3.3125)" xlink:href="#a"/>
  <pattern id="x" patternTransform="scale(1.1 .975)" xlink:href="#a"/>
  <pattern id="w" patternTransform="scale(.83125 .81875)" xlink:href="#a"/>
  <pattern id="v" patternTransform="matrix(.78525 .002317 -.0028211 .95607 -.86857 1.4699)" xlink:href="#a"/>
  <pattern id="a" width="10" height="10" patternTransform="translate(0) scale(10)" patternUnits="userSpaceOnUse">
   <circle cx="2.567" cy=".81" r=".45"/>
   <circle cx="3.048" cy="2.33" r=".45"/>
   <circle cx="4.418" cy="2.415" r=".45"/>
   <circle cx="1.844" cy="3.029" r=".45"/>
   <circle cx="6.08" cy="1.363" r=".45"/>
   <circle cx="5.819" cy="4.413" r=".45"/>
   <circle cx="4.305" cy="4.048" r=".45"/>
   <circle cx="5.541" cy="3.045" r=".45"/>
   <circle cx="4.785" cy="5.527" r=".45"/>
   <circle cx="2.667" cy="5.184" r=".45"/>
   <circle cx="7.965" cy="1.448" r=".45"/>
   <circle cx="7.047" cy="5.049" r=".45"/>
   <circle cx="4.34" cy=".895" r=".45"/>
   <circle cx="7.125" cy=".34" r=".45"/>
   <circle cx="9.553" cy="1.049" r=".45"/>
   <circle cx="7.006" cy="2.689" r=".45"/>
   <circle cx="8.909" cy="2.689" r=".45"/>
   <circle cx="9.315" cy="4.407" r=".45"/>
   <circle cx="7.82" cy="3.87" r=".45"/>
   <circle cx="8.27" cy="5.948" r=".45"/>
   <circle cx="7.973" cy="7.428" r=".45"/>
   <circle cx="9.342" cy="8.072" r=".45"/>
   <circle cx="8.206" cy="9.315" r=".45"/>
   <circle cx="9.682" cy="9.475" r=".45"/>
   <circle cx="9.688" cy="6.186" r=".45"/>
   <circle cx="3.379" cy="6.296" r=".45"/>
   <circle cx="2.871" cy="8.204" r=".45"/>
   <circle cx="4.59" cy="8.719" r=".45"/>
   <circle cx="3.181" cy="9.671" r=".45"/>
   <circle cx="5.734" cy="7.315" r=".45"/>
   <circle cx="6.707" cy="6.513" r=".45"/>
   <circle cx="5.73" cy="9.67" r=".45"/>
   <circle cx="6.535" cy="8.373" r=".45"/>
   <circle cx="4.37" cy="7.154" r=".45"/>
   <circle cx=".622" cy="7.25" r=".45"/>
   <circle cx=".831" cy="5.679" r=".45"/>
   <circle cx="1.257" cy="8.519" r=".45"/>
   <circle cx="1.989" cy="6.877" r=".45"/>
   <circle cx=".374" cy="3.181" r=".45"/>
   <circle cx="1.166" cy="1.664" r=".45"/>
   <circle cx="1.151" cy=".093" r=".45"/>
   <circle cx="1.151" cy="10.093" r=".45"/>
   <circle cx="1.302" cy="4.451" r=".45"/>
   <circle cx="3.047" cy="3.763" r=".45"/>
  </pattern>
  <pattern id="u" xlink:href="#t" patternTransform="matrix(.19422 .069408 -.12408 .34722 2.2874 .41586)"/>
  <pattern id="t" width="30.066020" height="5.1805778" patternUnits="userSpaceOnUse">
   <path d="m7.597 0.061c-2.518-0.248-4.941 0.241-7.607 1.727v1.273c2.783-1.63 5.183-2.009 7.482-1.781 2.298 0.228 4.497 1.081 6.781 1.938 4.567 1.713 9.551 3.458 15.813-0.157l-4e-3 -1.273c-6.44 3.709-10.816 1.982-15.371 0.273-2.278-0.854-4.576-1.75-7.094-2z"/>
  </pattern>
 </defs>
 <g fill-rule="evenodd">
  <g transform="translate(2.2874 .41586)">
   <path d="m34.812 20.549-5.8125-7.1875c-1.2014-1.37-0.86028-2.4594-0.25-3.5 1.5372-2.8508 3.0174-5.7341 5.6875-7.9375l1.4375 4.625c1.2013 2.6924 2.8033 4.3163 4.5 5.6875l3.1875 0.5625c0.80557 0.17348 2.163-0.07884 2.8125 1.1875l-1.25 4.25-6.125 0.625z" fill="#5aa02c" stroke="#fc0" stroke-width=".29055"/>
   <path d="m34.91 20.543-4.1331-4.5358c-1.2014-1.37 2.6753-2.3269 3.2855-3.3674 4.1273-2.407 6.6396-0.47226 7.6033 0.1211l1.9943 0.03217c0.80557 0.17348 2.163-0.07884 2.8125 1.1875l-1.25 4.25-6.125 0.625z" fill="url(#ah)" opacity=".304"/>
   <path d="m34.494 1.2188c-0.48261-0.00759-0.68893 0.33735-0.93164 0.58008 0 0-0.0052 0.00521-0.0078 0.00781s-0.0054 0.00503-0.0078 0.00781c-1.5497 1.7866-3.0147 3.4585-4.2578 5.6758-0.59971 1.0697-1.6174 2.3858-1.5488 4.0937 0.08019 1.9962 1.3804 3.5193 2.2891 4.793 1.2281 1.7215 4.1074 4.4375 4.1074 4.4375l1.2266-1.2812s-2.939-2.8489-3.8926-4.1855c-0.95272-1.3355-1.9125-2.6277-1.9609-3.834-0.03574-0.88973 0.65454-1.9583 1.3262-3.1563 0.55918-0.99742 1.81-3.2498 2.627-4.252-0.05922 0.41877-0.4616 1.8917-0.51953 2.3984-0.18507 1.6189-0.34079 3.4866-0.10938 4.793 0.31332 1.7688 1.5966 3.7079 2.7812 5.3027 1.1847 1.5948 2.3008 2.8047 2.3008 2.8047l1.043-0.96094s-1.0698-1.1612-2.2051-2.6895c-1.1352-1.5283-2.3059-3.4642-2.5254-4.7031-0.16502-0.93154-0.05661-2.8132 0.12305-4.3848 0.03278-0.28674 0.12776-2.1948 0.16211-2.457 0.06112 0.42388 0.8155 2.6942 1.0547 3.0801 2.2907 3.6952 3.0076 5.3364 6.9258 6.2461 0.7456 0.17311 1.8854-0.24661 2.5449 0.17969 0.62596 0.40463 0.26608 1.2041 0.20313 1.9121-0.01555 0.17488-0.21618 0.76907-0.43164 1.2266-0.21547 0.45749-0.42188 0.81445-0.42188 0.81445l1.5352 0.88672s0.24047-0.41499 0.49023-0.94531c0.24977-0.53032 0.53273-1.1398 0.59375-1.8262 0.07274-0.81813 0.19762-2.057-0.73437-2.9629-0.76019-0.7389-1.7426-0.72739-2.4746-0.71094-0.73202 0.01645-1.3103 0.01034-1.582-0.12891-2.4031-1.2314-4.6713-3.2419-5.8477-5.6719-0.42789-0.88389-0.28912-1.9347-0.34961-2.877-0.037229-0.57992-0.014943-1.0527-0.35156-1.6289-0.29176-0.49938-0.68396-0.57628-1.1738-0.58398z" color="#000000" color-rendering="auto" fill="#447821" image-rendering="auto" shape-rendering="auto" solid-color="#000000" style="block-progression:tb;isolation:auto;mix-blend-mode:normal;text-decoration-color:#000000;text-decoration-line:none;text-decoration-style:solid;text-indent:0;text-transform:none;white-space:normal"/>
  </g>
  <path d="m44.493 77.326c-1.5104 0.48705-4.0419 2.0403-3.8449 2.8284l0.35355 4.8614 1.3258 0.7955c0.36022 6.0895 0.92156 11.308 1.6352 15.866 3.5624 1.4452 7.1483 2.6086 10.828 2.6516 3.6681 0.10559 7.3362-0.76177 11.004-1.9446 0.58457-0.43675 0.99104-1.0961 1.1049-2.1213l1.5468-14.142c0.65952-0.28329 1.4859-0.3997 1.591-1.2374l0.35355-5.2149c-0.42562-0.95764-5.0747-2.8005-7.8666-3.2704-5.9349-0.99881-12.303-0.91895-18.031 0.92808z" fill="#c83737" stroke="#fc0" stroke-width=".29055"/>
  <path d="m41.51 81.772s2.2084-2.0057 5.701-2.8284c2.7568-0.6494 5.6088-0.98514 8.4411-0.97227 3.1026 0.0141 6.2526 0.29946 9.2366 1.149 3.1031 0.8835 4.1542 2.74 4.1542 2.74s-4.429 2.0694-6.8059 2.5191c-3.7207 0.70389-7.6066 0.73763-11.358 0.22097-3.2318-0.4451-9.3692-2.8284-9.3692-2.8284z" fill="#2b0000" stroke="#aad400" stroke-width=".29055"/>
  <path d="m41.709 81.613s2.2084-2.0057 5.701-2.8284c2.7568-0.6494 5.6088-0.98514 8.4411-0.97227 3.1026 0.0141 6.2526 0.29946 9.2366 1.149 3.1031 0.8835 4.1543 2.74 4.1543 2.74s-4.429 2.0694-6.8059 2.5191c-3.7207 0.70389-7.6066 0.73763-11.358 0.22097-3.2318-0.4451-9.3692-2.8284-9.3692-2.8284z" fill="url(#u)" opacity=".31" stroke="#aad400" stroke-width=".29055"/>
  <path d="m55.578 75.142c-4.1216 0-7.8508 0.468-10.619 1.2539-1.3842 0.39296-2.529 0.85788-3.3926 1.4375s-1.5352 1.353-1.5352 2.3379c0 0.40202-0.0127 0.7287 0.17846 1.061l0.10474 2.5425c0.0059 0.25457 0.28657 1.6248 0.72852 1.8343 0.44194 0.20953 0.62825 0.29831 0.70117 0.33398l1.2012 13.877c0.09156 1.0578 0.44016 2.3174 1.293 2.7222 3.684 1.7483 7.8616 2.5627 11.455 2.4902 3.5867-0.0723 6.9362-0.39702 10-1.8711 0.79559-0.38278 1.3748-0.94415 1.5703-1.6699 0.21124-0.784 0.24018-1.0042 0.56055-3.5703 0.32036-2.5661 1.4499-11.544 1.4499-11.544 0.27615-0.06307 0.27112-0.12116 0.42188-0.18164 0.47426-0.19027 0.8365-1.0776 0.95044-1.4791 0.11037-0.38889 0.11339-0.7631 0.10938-1.1367l0.32839-2.5173c0.16513-0.31172 0.04075-0.51963 0.04075-0.89086 0-0.98493-0.67161-1.7583-1.5352-2.3379-0.86355-0.57962-2.0065-1.0445-3.3906-1.4375-2.7683-0.78591-6.4995-1.2539-10.621-1.2539zm-0.01367 1.4512c3.9896 0 7.6598 0.50928 10.207 1.2324 1.2736 0.36157 2.3225 0.84954 2.9453 1.2676s0.68945 0.91169 0.68945 1.0781c0 0.0923-0.0576 0.23577-0.20508 0.41406-0.2345-0.28755-0.55626-0.54251-0.92578-0.78125-0.73123-0.47243-1.7172-0.89488-2.8965-1.2656-2.3586-0.74149-5.4895-1.2592-8.7695-1.293-2.5441-0.0262-6.2093 0.35678-9.2871 1.0781-1.5389 0.36067-2.9278 0.80289-3.9746 1.3477-0.52342 0.27238-0.9633 0.56848-1.2969 0.92383-0.01439 0.01533-0.02506 0.03318-0.03906 0.04883-0.1866-0.20529-0.25976-0.37078-0.25976-0.47266 0-0.16644 0.06663-0.58977 0.68945-1.0078 0.62282-0.41804 1.6854-0.87866 2.959-1.2402 2.5472-0.72314 6.1744-1.3301 10.164-1.3301zm1.0332 1.7148c3.1743 0.03269 6.2272 0.54131 8.4629 1.2441 1.1178 0.35142 2.0313 0.75535 2.6367 1.1465 0.30689 0.19828 0.51436 0.3898 0.64648 0.54883-0.62685 0.36409-1.5127 0.7319-2.6152 1.0449-2.5472 0.72314-6.1608 1.1875-10.15 1.1875-3.9896 0-7.6032-0.46436-10.15-1.1875-1.0676-0.30309-1.9313-0.65711-2.5547-1.0098 0.21306-0.2136 0.53631-0.44691 0.96484-0.66992 0.91052-0.47383 2.2389-0.90525 3.7266-1.2539 2.9753-0.69731 6.6084-1.0758 9.0332-1.0508zm-15.172 4.0938c0.8446 0.53491 2.2274 1.1742 3.5332 1.5449 2.7683 0.78591 6.4976 1.2539 10.619 1.2539s7.8528-0.468 10.621-1.2539c1.2797-0.36331 2.6218-0.95423 3.459-1.4746 0.01378 0.60909-0.10992 2.0909-0.19068 2.6328-1.4776 0.65442-2.3323 1.1946-3.8124 1.5398-3.2707 0.7628-7.1156 0.8289-9.8814 0.89721-3.8806 0.09585-7.0698-0.35157-9.2791-1.0276-2.2084-0.67574-3.6353-1.2815-4.4287-1.6553-0.37328-0.17586-0.34926-0.24277-0.35352-0.52734zm1.7168 4.0394c0.81941 0.38205 1.9266 0.68646 3.3286 1.1155 2.3386 0.71558 5.102 1.3152 9.1394 1.2227 6.7536-0.1548 8.7532-0.37912 12.157-1.7685 0.05447 5.0035-1.1055 8.3878-1.6855 12.545-0.06598 0.47298-0.08339 0.58181-0.20741 1.1088-0.12402 0.52703-0.48661 0.90904-1.1442 1.2662-0.65754 0.35713-1.5796 0.63212-2.6309 0.88939-2.1025 0.51455-4.3697 0.52215-6.5449 0.53563-2.0518 0.0127-3.7036-0.16563-5.6738-0.60938-1.6497-0.37155-2.9958-0.56052-4.5735-1.4074-0.56008-0.30065-0.85098-1.6102-0.90869-2.1344-0.46771-4.2491-1.7297-8.41-1.2564-12.764z" color="#000000" color-rendering="auto" fill="#501616" image-rendering="auto" shape-rendering="auto" solid-color="#000000" style="block-progression:tb;isolation:auto;mix-blend-mode:normal;text-decoration-color:#000000;text-decoration-line:none;text-decoration-style:solid;text-indent:0;text-transform:none;white-space:normal"/>
  <path d="m30.767 48.955c-0.71135 0.04645-1.0793 0.87128-0.63867 1.4316 0 0 4.9816 6.401 5.8659 7.8146 4.3828 7.0064 12.683 22.901 12.683 22.901 0.51922 1.0904 2.1492 0.26944 1.582-0.79688 0 0-8.2653-15.853-12.763-23.043-0.99933-1.5975-5.9597-7.9494-5.9597-7.9494-0.17907-0.24222-0.46894-0.37685-0.76953-0.35742z" color="#000000" color-rendering="auto" fill="#2d5016" image-rendering="auto" shape-rendering="auto" solid-color="#000000" stroke="#17280b" stroke-linecap="round" stroke-width="1.063" style="block-progression:tb;isolation:auto;mix-blend-mode:normal;text-decoration-color:#000000;text-decoration-line:none;text-decoration-style:solid;text-indent:0;text-transform:none;white-space:normal"/>
  <g transform="translate(2.2874 .41586)">
   <path d="m71.812 32.549 4.3125-0.0625 4.4375 1.9375 4.3125-0.0625c0.50012 0.47882 1.088 0.69432 1.4375 1.625l0.125 1.1875-0.5 1.25-1.75-1.6875c-1.1176-0.65188-1.5985-0.03033-2.25 0.25l-2.4375 4-5.3125 3.0625-5.5625-2.9375-2.6875-1.3125 3.3125-4.25 1.375-2.75z" fill="#5aa02c" stroke="#cf0" stroke-width=".29055"/>
   <path d="m65.844 39.987c1.3829-1.2238 2.6452-2.6887 3.5312-4.9062l1.6562-2.4375c2.1609-0.58254 4.2319-0.17559 6.3125 0.125l2.4375 1.5938 3.6562 0.3125c-0.93095 0.19109-1.8743 0.3491-2.5625 1.1875l-3.3125 0.09375-4.9375 2.2188c0.28887-0.20221 1.023 1.2187 0.9375 2.2812-0.09927 1.2342 2.5312 2.7188 2.5312 2.7188l-2.1875 0.53125-4.625-2.4062z" fill="url(#af)" opacity=".312"/>
   <path d="m72.629 32.184 0.30469 0.85742c0.94072-0.20017 1.991-0.11004 2.8794 0.06814 1.5431 0.30947 2.8815 1.4163 4.091 1.7134 1.9058 0.46806 3.6043 0.37581 4.5159 0.0935 0.96867-0.29998 2.0778 2.6695 1.2753 2.7826-0.02847-1.0299-1.7498-2.7611-3.4843-1.435l-1.0957 0.25977-0.33203 0.84375c-0.85993 2.1852-1.1543 2.5388-1.9785 3.2031-0.82418 0.66433-2.0164 0.72247-3.0645 1.7988l0.76953 0.76758c0.7875-0.80877 2.1993-0.71556 3.25-1.5625 0.94528-0.76194 1.3438-2.3024 2.623-4.0371 0.47302-0.64145 1.3534-0.71988 2.207 0.04297 0 0 0.82501 1.4417 1.4688 1.3125 0.32605-0.06546 0.42969-0.90039 0.42969-0.90039 0.42825-0.89738 0.48497-1.8155 0.11133-2.5293-0.37364-0.71377-1.0387-1.1059-1.7051-1.3594-1.2762-0.48545-3.039-0.13932-3.9434-0.34766-1.794-0.41329-3.0772-1.6108-5.3965-1.8359-0.84252-0.08178-2.1614 0.14912-2.9258 0.26367zm5.255 3.2858c-3.7376 0.73313-6.9351 2.5952-9.6163 5.0931l0.90234 0.75586c1.2747-1.1876 2.502-2.3641 4.0629-3.0578 1.4066-0.62511 2.9377-1.1998 4.4894-1.7569 1.3603-0.48839 3.3898 0.01113 3.5452-0.602 0.03048-0.39437-2.884-0.53027-3.3836-0.43226z" color="#000000" color-rendering="auto" fill="#17280b" image-rendering="auto" shape-rendering="auto" solid-color="#000000" style="block-progression:tb;isolation:auto;mix-blend-mode:normal;text-decoration-color:#000000;text-decoration-line:none;text-decoration-style:solid;text-indent:0;text-transform:none;white-space:normal"/>
  </g>
  <g transform="translate(2.2874 .41586)">
   <path d="m56.375 39.424 2.9375-2.375 4.5-2 3.3125-4.5625 3.625-1.875c1.125-0.41353 2.25-0.02617 3.375 0.375 1.5543 0.30997 2.9585 0.64997 3.6875 1.125l-0.0625 0.375-2.6875 0.4375-1.875 1.4375-2.3125 0.3125-2.75 4.9375c-0.91043 0.92777-1.4313 1.7611-2.8125 2.375l-4.9375-0.625z" fill="#447821" stroke="#cf0" stroke-width=".29055"/>
   <path d="m55.812 39.487 3.375-2.6875 4.125-1.625c0.95833-0.69372 1.9167-1.5355 2.875-2.5625l0.9375-2.4375 2.6875-1.0625 3-0.5625c3.0575 0.39968 0.18055 1.3737-1.6875 2.25-0.99066 0.45543-1.9175 0.46448-3.0625 2l-2.25 2.6875c-1.4977 1.6978-1.1598 3.2808 0 4.8125-2.5625-0.7347-5.125-1.847-7.6875-1z" fill="url(#ae)" opacity=".317"/>
   <path d="m71.736 27.881c-0.69413-0.0095-1.4111 0.12188-2.1035 0.54102-0.77026 0.46629-1.2845 0.8136-1.6836 1.0352-0.39907 0.22155-0.53026 0.54775-0.95898 0.61719l0.08398 0.93164c0.63147-0.10227 1.1831-0.29308 1.6895-0.57422 0.50639-0.28113 0.89796-0.53562 1.6328-0.98047 0.73458-0.44468 2.1169-0.35197 3.2656-0.07422 0.21166 0.05118 0.82834 0.30315 1.6914 0.36133 0.67197 0.0453 1.8619 0.28889 1.8516 0.47852-0.01085 0.19801-1.8556 0.2926-2.5215 0.38672-0.89947 0.12714-1.1526 0.84462-1.3926 1.0449-0.56554 0.47205-1.1229 0.17418-1.7168 0.20508-1.1133 0.05791-1.4608 0.97745-1.8809 1.7227-0.42002 0.74521-1.062 1.4548-1.2285 1.8281-0.3057 0.68546-0.93864 1.3254-1.6406 2.3047-0.44681 0.6233-1.3096 1.3044-1.7656 1.8496l0.89648 1.0078c0.69306-0.64371 1.427-1.0482 1.9277-1.7285 0.75015-1.0191 1.5291-2.1948 1.957-3.1543 0.24022-0.53865 0.47527-1.2336 0.77734-1.7695 0.30207-0.53595 0.5663-0.74689 0.75391-0.75586 0.57006-0.02727 1.036-0.03226 1.5312-0.14062 0.49522-0.10836 0.99359-0.35149 1.4375-0.73633 0.4554-0.39481 1.4252-1.3331 2.1406-1.3398 1.1901-0.01123 1.8047-0.08205 1.9336-0.40039-0.21574-1.0632-1.1095-0.99088-1.9727-1.3047-0.82823-0.30111-1.8592-0.83628-2.7383-1.0488-0.60098-0.1453-1.2727-0.29714-1.9668-0.30664zm1.4199 1.9961c-0.26945 0.01232-0.53296 0.04217-0.75586 0.09375-0.89161 0.20634-1.9444 0.49645-2.6973 0.94531-1.3862 0.82646-2.8241 2.6707-4.0918 4.0801-1.2677 1.4093-4.5312 3.7539-4.5312 3.7539l0.78906 0.61328s3.1121-2.3815 4.3535-3.7617 2.3781-3.127 3.5508-3.8262c0.54636-0.32573 1.9804-0.83266 2.8301-1.0293 0.84966-0.19663 2.2025-0.30522 2.2168-0.61524 0.0078-0.169-0.85572-0.29086-1.6641-0.25391z" color="#000000" color-rendering="auto" fill="#2d5016" image-rendering="auto" shape-rendering="auto" solid-color="#000000" style="block-progression:tb;isolation:auto;mix-blend-mode:normal;text-decoration-color:#000000;text-decoration-line:none;text-decoration-style:solid;text-indent:0;text-transform:none;white-space:normal"/>
  </g>
  <g transform="translate(2.2874 .41586)">
   <path d="m21.25 41.362c-1.3813 0.20648-2.8272 0.60661-4.375 1.3125-2.1631 1.3775-3.23 2.5983-4.25 3.8125l-0.625 2.3125-1.375 1.3125-0.25 3.25c0.67992-0.97917 0.87153-1.9583 2.625-2.9375 1.2283 0.02307 2.3915 0.20887 3.9375-0.5625l2.6875-0.8125c0.64243-1.8173 0.91444-3.5883 2.8125-5.5625-1.2472-1.2405-1.2472-1.7014-1.1875-2.125z" fill="#5aa02c" stroke="#aad400" stroke-width=".29055"/>
   <path d="m20.594 41.511-2.74 0.70711c-0.49827 0.80308-0.55766 1.6427 0.35355 2.5633-0.91096 1.6869-0.76687 3.2332 0.08839 4.6846l1.2374-0.53033c0.81138-1.9944 1.414-4.1081 3.0052-5.6569-1.121-0.49468-1.3488-1.168-1.9445-1.7678z" fill="url(#aj)" opacity=".299"/>
   <path d="m21.484 40.672s-0.74099 0.16048-1.6367 0.39453c-0.89572 0.23405-1.9251 0.52283-2.6621 0.86914-1.083 0.50893-2.1802 1.4887-3.0957 2.3594s-1.1521 0.9178-1.6074 1.6367c-0.4507 0.71156-0.96236 1.5463-0.8418 2.5645-1.0038 0.96538-1.328 1.2335-1.4863 2.2695-0.17262 1.1294-0.0011 1.069-0.18359 1.916-0.12941 0.60049 0.090383 1.5179 0.31836 1.5898 0.32551 0.10278 0.38165-0.52282 0.89258-1.3516 1.3042-2.1155 1.6602-1.2913 3.0449-2.1152 2.0491 0.40305 4.1642-0.61502 5.1875-0.96289l-0.2832-1.4102c-1.9931 0.52062-4.2396 1.9117-5.8516 1.4473-1.1774 0.67555-1.8201 0.76349-2.4551 1.9062-0.29883-0.9766 0.45446-2.2536 1.6895-2.7812-0.12862-0.93696 0.43781-1.6603 0.81836-2.2578 0.24578-0.38591 0.4911-0.86943 1.3164-1.6543 0.8628-0.82052 2.0443-1.7116 2.6953-2.0176 0.47213-0.22186 1.8732-0.44397 2.7305-0.66797s1.6992-0.42383 1.6992-0.42383l-0.28906-1.3105zm-0.39062 3.1895c-2.6015 0.75868-5.7526 0.83187-7.0527 3.8047-0.50986 1.1658-1.2501 1.8832-1.1094 1.9258 0.20446 0.06185 1.5491-1.07 1.9004-1.709 1.2596-2.2911 3.831-2.3976 6.4258-3.1543l-0.16406-0.86719z" color="#000000" color-rendering="auto" fill="#2d5016" image-rendering="auto" shape-rendering="auto" solid-color="#000000" style="block-progression:tb;isolation:auto;mix-blend-mode:normal;text-decoration-color:#000000;text-decoration-line:none;text-decoration-style:solid;text-indent:0;text-transform:none;white-space:normal"/>
  </g>
  <g transform="translate(2.2874 .41586)">
   <path d="m42.188 54.299-4-2.6875-5.6875-0.9375-6.1875-4.0625-5.875-5.3125-1.4375-1.75h-4.25l-3.25 0.75-0.625-0.75 2.125-1.75 6.25-1.625 4.125 0.625 4.8125-1.5 2.875 0.4375 5.625 3.625 5.75 1.875c1.3683 0.85948 2.3798 2.3732 2.75 5.0625v5.75c-0.78341 1.7246-1.8911 1.9899-3 2.25z" fill="#5aa02c" stroke="#f0f" stroke-width=".29055"/>
   <path d="m42.957 53.973-5.3033-2.4749c-3.249-0.50281-4.8468-0.98591-7.6014-1.9445-2.3032-2.2328-5.4763-3.9448-7.7782-6.1872l-2.9168-3.7123c1.7456-0.97153 3.3513-0.82417 4.8614 0.08839 1.804 0.34894 3.637 0.74147 6.364 2.4749 1.1163 1.6417 1.9521 2.904 3.9775 4.773 2.2284-1.3928 3.3487-0.56912 4.9497-0.70711 2.2718 0.10714 1.4355-3.6709 2.0329-5.6569 0.58872 0.7317 1.6938 1.047 2.4032 2.4666 1.876 3.7541 2.7509 9.0514-0.989 10.88z" fill="url(#ad)" opacity=".31"/>
   <path d="m25.406 35.244c-0.99947 0.34459-1.8979 0.70187-2.7129 0.75-0.8085 0.04774-1.8243-0.3177-3.084-0.33984-2.0169-0.03546-3.7877 0.61643-5.5402 1.2552-1.3669 0.49825-2.228 1.2334-3.202 2.1491-0.91294 0.85834-0.66577 1.5568 0.58117 1.6276 1.0416 0.0592 2.5889-0.53753 3.4973-0.67435 1.5298-0.23042 3.3978 0.08134 3.8766 0.27329 1.2014 0.48165 1.5169 2.0594 2.4316 2.7598 1.5771 1.2075 2.648 2.4249 4.4004 3.7227 2.1965 1.6266 4.3223 3.9082 7.2715 4.8535 1.5664 0.50207 3.2072 0.16418 4.7207 0.4082 0.55689 0.08978 1.379 0.80689 2.2246 1.4668s1.7486 1.4603 3.002 1.2598l-0.16211-1.0156c0.77549-0.1711 0.95151-1.1975 0.27734-1.6172-2.1254-1.3728-4.4856-2.9048-6.4043-4.4199-1.918-1.5145-3.3534-3.0686-4.166-4.4149-0.81258-1.3463-1.9469-1.819-3.2728-2.4823-1.4793-0.74011-2.671-1.1462-4.0606-1.6114-0.79323-0.26556-1.4058 0.28454-0.74669 0.79966 1.2792 0.9998 2.9537 1.159 4.2946 1.7165 1.3409 0.55756 2.228 1.4184 2.6943 2.817 0.46633 1.3986 2.3099 2.5232 4.3265 4.1156 0.43987 0.34734 4.7884 3.1685 5.2579 3.5105-0.46775-0.02467-4.9714-2.0357-5.3897-2.0249-0.78841 0.02025-1.4663 0.01127-2.0098-0.17969-2.4114-0.84732-4.1769-1.8544-6.5232-3.592-1.5924-1.1793-2.7043-2.5102-4.4391-3.8235-0.37548-0.28426-1.4145-1.451-1.8237-2.092-0.40923-0.641-0.75941-1.2114-1.8259-1.3959-1.2839-0.22205-2.6828-0.34108-4.1693-0.11024-0.70035 0.10876-2.5114 0.89012-2.8217 0.58943-0.49809-0.48269 1.7052-1.1806 2.308-1.4194 1.4907-0.59055 3.6707-1.1036 5.3613-1.0739 0.85395 0.01501 2.0878 0.35651 3.3896 0.27964 1.2029-0.07104 2.1951-0.56395 3.1488-0.90591 0.95368-0.34196 2.3557-0.47221 3.1236-0.3913 2.5053 0.26397 4.4209 2.4838 7.2016 3.8033 1.3682 0.64924 2.5759 0.70447 3.8611 1.154 1.2852 0.44957 2.3164 1.436 2.9453 2.3293 0.66013 0.93779 0.99969 3.2043 1.0254 5.168 0.0257 1.9636-0.16797 3.6211-0.16797 3.6211l1.7598 0.20508s0.20708-1.7564 0.17969-3.8496-0.19326-4.5261-1.3477-6.166c-0.95588-1.3579-2.3978-2.0351-3.8105-2.5293s-2.8477-0.83223-3.9668-1.3633c-2.4536-1.1643-4.9139-3.3922-8.1699-3.7402-1.1552-0.12349-2.3516 0.2556-3.3438 0.59766z" color="#000000" color-rendering="auto" fill="#447821" image-rendering="auto" shape-rendering="auto" solid-color="#000000" style="block-progression:tb;isolation:auto;mix-blend-mode:normal;text-decoration-color:#000000;text-decoration-line:none;text-decoration-style:solid;text-indent:0;text-transform:none;white-space:normal"/>
  </g>
  <g transform="translate(2.2874 .41586)">
   <path d="m74.875 43.612 4.5625-0.9375 7.5625 1.8125 4.625 0.375c1.7401 1.2201 1.972 2.2517 2.4375 3.3125l-3.25-0.1875-2.1875 0.0625-3.25 2.25-3.3125 4.5625c-2.8384 1.4283-5.8088 1.5367-8.8125 1.3125l-7.5-1.3125 5.0625-2c2.5052-0.86719 4.6852-1.7886 8.125-2.5l2-0.5-4.75-4.0625z" fill="#71c837" stroke="#c83737" stroke-width=".29055"/>
   <path d="m78.621 43.057c0.70281 1.2782 1.3278 2.5822 3.403 3.403 2.6677-0.03074 4.4905 0.78329 5.7452 2.1655l-3.6681 2.8726-2.5191 3.7565-8.1759 1.1932c-2.1192-2.0074-4.4026-1.3884-6.6291-1.6794l4.9056-2.1655c1.9295-0.77008 3.7151-1.5532 6.8943-2.2097l2.961-0.30936c-1.5873-1.0349-3.2011-2.0433-4.331-3.5355l-3.182-2.6075z" fill="url(#ag)" opacity=".312"/>
   <path d="m75.893 42.338c-1.178 0.20712-2.1191 0.94227-2.1191 0.94227l0.41602 1.2159s0.89301-0.21677 2.0117-0.41406c1.1187-0.19729 2.4876-0.35898 3.2227-0.29688 2.6237 0.22169 4.2904 0.6567 7.0662 1.3554 0.57608 0.145 1.5559 0.16314 2.3046 0.19221 0.74869 0.02907 1.8323 0.08975 2.094 0.1512 0.45378 0.10656 2.142 1.1743 2.2091 1.9916 0.03893 0.16984-1.8262-0.79618-2.9811-1.0676-1.155-0.27143-3.5222-0.67156-5.7631-0.67358-2.2409-2e-3 -4.3926 0.38294-6.0176 1.6504l0.60932 0.83346c1.1495-0.89654 3.406-1.3614 5.4345-1.3598 0.8278 6.18e-4 5.1188-0.1699 5.8437 0.63011-1.6077-0.14556-4.7124 1.5305-5.6481 2.6011-0.77618 0.88809-1.4142 1.7912-1.8992 2.6199s-1.218 1.2494-1.8089 1.5814c-0.90378 0.50788-3.0795 0.80415-4.9316 0.85547s-3.4082 0.13261-3.4082 0.13261l-0.18912 1.1463s1.6924 0.54672 3.6461 0.49258c1.9538-0.05413 4.1982-0.21002 5.75-1.082 1.0752-0.6042 1.6773-1.5821 2.1895-2.457 0.51214-0.87496 0.95687-1.671 1.5078-2.1523 1.3107-1.1451 1.9022-1.9948 3.541-2.6973 0.76978-0.32995 1.6894-0.12251 2.4902-0.0625 1.1007 0.08248 1.5572 0.13468 2.0742 0.26367 1.8599 0.46403 1.2866-0.65437 0.92383-1.3047-0.2596-0.46537-0.38627-0.696-0.93945-1.4297-0.55318-0.73369-1.163-1.6143-2.3047-1.8301-0.57666-0.10898-1.3252-0.12333-2.0723-0.15234-0.74706-0.02901-1.5478-0.09729-1.6035-0.11133-2.6353-0.66335-5.029-1.6505-7.9668-1.8828-1.2288-0.09717-2.5569 0.1206-3.6816 0.31836z" color="#000000" color-rendering="auto" fill="#250" image-rendering="auto" shape-rendering="auto" solid-color="#000000" style="block-progression:tb;isolation:auto;mix-blend-mode:normal;text-decoration-color:#000000;text-decoration-line:none;text-decoration-style:solid;text-indent:0;text-transform:none;white-space:normal"/>
  </g>
  <g transform="translate(2.2874 .41586)">
   <path d="m52.938 65.549c1.9139-2.3707 3.4219-4.7865 6.75-7 1.9899-1.354 3.9381-2.7318 7.0625-3.4375 2.384-0.65936 3.7069 0.27294 5.5 0.5 2.3338 1.5784 4.9442 2.7698 6.5 5.4375 2.2726 3.6014 4.0188 7.1277 5.125 10.562 0.47612 2.4142 0.54471 4.5024 0.1875 6.25l-0.75 0.6875-2.875-4.6875-5.625-6.1875-5.5 0.0625-4.9375 1.3125-6.5-2.0625c-1.5815-0.65194-2.9485 0.41234-4.375 1z" fill="#71c837" stroke="#f0f" stroke-width=".29055"/>
   <path d="m54.889 62.459 4.8614-4.331c2.9168-1.591 5.2494-3.7662 10.165-3.3588-1.1856 2.3907 4.506 6.4241 5.3917 10.341l5.1265 3.5355c0.89504 2.0449 4.3406 8.6978 0.44194 5.4801-1.9871-0.22272-3.5108-2.9938-5.0381-5.7452-1.4991-0.93381-3.0863-1.7971-6.8943-0.88388-2.7913 1.2941-4.2508 0.9236-6.1872 1.149-3.5948-1.7382-8.28-3.1129-7.8666-6.1872z" fill="url(#ac)" opacity=".302"/>
   <path d="m68.375 54.066c-4.7667 0.17854-8.6893 3.6127-12.021 6.3984-1.2471 1.0426-2.5678 2.8332-3.6504 4.4043s-1.65 2.5089-2.1683 3.4847c-0.64422 1.2128-1.0693 2.335-0.50219 3.2766 1.0897 0.38181 1.237-1.1052 1.7348-1.8898 0.74066-1.1675 2.6577-1.4694 3.9435-1.9672 1.3252-0.49214 2.5238-0.16053 3.9883 0.41602 1.4645 0.57654 3.1022 1.4129 5.0664 1.498 1.2802 0.05547 2.4242-0.32718 3.4707-0.67578s2.0015-0.66513 2.8848-0.67578c1.3398-0.01616 2.696 0.14638 3.75 0.68945 0.86473 0.44556 1.4443 1.335 2.1133 2.3984s1.4364 2.3082 2.877 2.9688c0.66033 0.3028 1.3848 1.3517 1.8652 2.4316 0.45406 1.3028 0.66352 2.2571 1.6211 2.8926 1.3876-0.24142 1.3409-1.7307 1.5156-2.8086 0.1715-1.3227 0.26005-2.9684-0.05078-4.3594-0.76687-3.4317-2.5491-6.5457-4.1426-9.4648-1.1044-2.0233-2.4775-4.0701-4.3984-5.5664-2.1429-1.6692-4.8252-3.5662-7.8965-3.4512zm-0.27141 1.6569c2.2682-0.08495 5.2872 1.2406 7.3596 2.8549 1.6216 1.2631 3.2243 3.3246 4.2714 5.2428 1.6029 2.9363 2.6595 6.0358 3.3475 9.1146 0.16348 0.73155 1.1481 4.2447 0.4117 4.4739-0.8168-0.21687-1.636-4.0513-2.8941-4.6282-0.87604-0.40171-1.4525-1.2472-2.1152-2.3008s-1.402-2.3076-2.8027-3.0293c-1.4589-0.75171-3.0952-0.90465-4.582-0.88672-1.2662 0.01527-2.3917 0.42181-3.4238 0.76562s-1.9665 0.62352-2.834 0.58594c-1.4876-0.06446-3.0593-0.49934-4.4941-1.375-1.1658-0.71148-4.7581-0.37076-6.1287 0.49061-0.14846-0.29258 2.4952-2.5076 3.453-2.8127 2.7851-0.88731 5.9648-2.8411 7.9065-2.8086 2.222 0.03717 5.7547 2.3915 8.5426 4.1229s4.1515 2.0786 4.9375 2.6649c1.764 1.3159 2.4418 2.4195 2.5666 2.2256 0.19872-0.30903-1.0062-1.9109-1.4591-2.8201-0.47194-0.94737-3.2362-1.726-6.1248-3.5199s-5.3793-3.719-8.3772-3.7692c-2.7175-0.04546-4.9339 1.0928-7.6945 2.3693-1.5469 0.71524-3.7888 3.4725-4.3126 3.0614 0.84711-1.1387 2.7637-3.694 3.4392-4.2588 3.3421-2.7941 7.0809-5.616 11.007-5.7631z" color="#000000" color-rendering="auto" fill="#5aa02c" image-rendering="auto" shape-rendering="auto" solid-color="#000000" style="block-progression:tb;isolation:auto;mix-blend-mode:normal;text-decoration-color:#000000;text-decoration-line:none;text-decoration-style:solid;text-indent:0;text-transform:none;white-space:normal"/>
  </g>
  <path d="m59.209 65.26a1.2403 1.2403 0 0 0 -1.084 0.65234c-2.5746 4.6251-3.9686 9.4477-3.2363 13.867a1.2403 1.2403 0 1 0 2.4473 -0.4043c-0.59915-3.6159 0.55726-7.9468 2.957-12.258a1.2403 1.2403 0 0 0 -1.084 -1.8574z" color="#000000" color-rendering="auto" fill="#2d5016" image-rendering="auto" shape-rendering="auto" solid-color="#000000" stroke="#17280b" stroke-linecap="round" stroke-width="1.063" style="block-progression:tb;isolation:auto;mix-blend-mode:normal;text-decoration-color:#000000;text-decoration-line:none;text-decoration-style:solid;text-indent:0;text-transform:none;white-space:normal"/>
  <path d="m57.591 58.222c-0.38824-0.0079-0.74989 0.19652-0.94336 0.5332-3.7905 6.3915-5.7166 16.294-5.9336 21.963-0.05517 1.4171 2.0708 1.4992 2.125 0.08203 0.21595-5.6416 2.1934-15.153 5.6367-20.959 0.42996-0.70027-0.06319-1.6028-0.88476-1.6191z" color="#000000" color-rendering="auto" fill="#2d5016" image-rendering="auto" shape-rendering="auto" solid-color="#000000" stroke="#17280b" stroke-linecap="round" stroke-width="1.063" style="block-progression:tb;isolation:auto;mix-blend-mode:normal;text-decoration-color:#000000;text-decoration-line:none;text-decoration-style:solid;text-indent:0;text-transform:none;white-space:normal"/>
  <path d="m62.806 66.328a1.2403 1.2403 0 0 0 -1.0859 0.64844s-2.3932 4.1697-3.2422 6.7266c-0.81581 2.4571-1.3281 6.9062-1.3281 6.9062a1.2403 1.2403 0 1 0 2.4609 0.30664s0.61032-4.5932 1.2207-6.4316c0.64349-1.9381 3.0488-6.291 3.0488-6.291a1.2403 1.2403 0 0 0 -1.0742 -1.8652z" color="#000000" color-rendering="auto" fill="#2d5016" image-rendering="auto" shape-rendering="auto" solid-color="#000000" stroke="#17280b" stroke-linecap="round" stroke-width="1.063" style="block-progression:tb;isolation:auto;mix-blend-mode:normal;text-decoration-color:#000000;text-decoration-line:none;text-decoration-style:solid;text-indent:0;text-transform:none;white-space:normal"/>
  <path d="m53.447 57.499c-0.58681-0.02052-1.0791 0.43858-1.0996 1.0254-0.40528 8.3561-0.10613 15.291 0.85318 22.323 0.19141 1.4049 2.2988 1.1178 2.1074-0.28711-0.9376-6.8731-1.2358-13.681-0.8356-21.932 0.03743-0.59803-0.42653-1.1088-1.0254-1.1289z" color="#000000" color-rendering="auto" fill="#2d5016" image-rendering="auto" shape-rendering="auto" solid-color="#000000" stroke="#17280b" stroke-linecap="round" stroke-width="1.063" style="block-progression:tb;isolation:auto;mix-blend-mode:normal;text-decoration-color:#000000;text-decoration-line:none;text-decoration-style:solid;text-indent:0;text-transform:none;white-space:normal"/>
  <g transform="translate(2.2874 .41586)">
   <path d="m44.5 44.237h4.375l6.375-4.375 4.5625-3.1875 3.25-1.375c2.0742-0.52681 3.4208-2.63 4.5-5.3125 0.43018-2.5039 2.7981-4.4793 5-6.5l-7.6875-0.1875-3 0.875-7.625 1.25-6.375 3.5625-4.625 7.5z" fill="#5aa02c" stroke="#000" stroke-width=".29055"/>
   <path d="m43.5 36.799c0.97693-1.1185 1.0343-2.5836 2.2389-4.6057 1.5616 0.89958 3.5767 4.6189 6.5736 3.9182 3.307-1.2583 2.4132-2.2551 5.0625-4.5l6.125-2.625c-3.5833-1.945-7.5417-2.07-11.125-2.75 3.0043-0.96607 8.5752-2.7186 12.875-2.875l7.625 0.125-4.25 4.25c-1.2083 2.425-2.4167 5.0424-3.625 6.1875l-6.9375 3.6875s-2.0625 2.3125-2.625 2.3125-9.0625 2.4375-9.0625 2.4375l-2.1875-0.25z" fill="url(#w)" opacity=".296"/>
   <path d="m75.145 22.929c-0.99557-0.49413-1.5515-0.25556-2.2564-0.26531-0.75726-0.01047-3.2554 0.2115-4.8047 0.19727-1.1924-0.01096-2.5877-0.47968-4.1387-0.23047-1.2353 0.19848-2.0483 0.92972-2.748 1.084-1.1568 0.25503-2.6531-0.15333-4.2754 0.24219-2.968 0.72359-6.11 1.7654-8.5352 3.8535-1.4082 1.2124-2.7378 3.3322-3.7832 5.1797s-1.7715 3.4199-1.7715 3.4199c0.40767 2.7862 0.90435 6.2957 1.1973 8.2422 0 0 0.67386 0.117 1.5078 0.19141 0.83396 0.0744 1.8039 0.12453 2.6211-0.08594 4.9192-1.2669 8.6132-5.1844 12.027-7.5117 1.4162-0.96537 3.5914-1.1789 5.1875-2.6426 2.1813-2.0004 2.7676-4.9501 4.2578-6.8535 1.0371-1.3247 2.8512-3.3318 3.4647-3.5768 0.57702-0.23044 1.4725-0.61454 2.0496-1.2438zm-7.0729 1.3499c0.7267 0.0099 1.4091-0.02751 2.1055-0.06836-2.8501 2.1762-5.7385 4.2934-8.4355 7.2402-3.1451 3.4364-6.6715 5.391-10.33 7.125-1.453 0.68865-2.255 2.0742-3.293 2.5625-1.3601 0.63985-2.2166 0.68375-3.4824 0.38672l-0.4375-4.6777c0.06316-0.13579 0.67278-1.4532 1.6387-3.1602 1.0142-1.7924 2.3721-3.8535 3.4746-4.8027 2.1391-1.8418 5.0616-2.8477 7.9453-3.5508 1.1411-0.27821 2.6232 0.12102 4.2441-0.23633 1.1966-0.26381 1.9834-0.97454 2.668-1.0664 1.3188-0.17698 2.7527 0.23244 3.9023 0.24805zm-0.18945 3.502c-1.3163 2.0773-1.9648 4.3981-3.4688 5.7773-1.1858 1.0875-3.131 1.4407-4.9258 2.4531-4.2256 2.3836-7.4813 6.2336-11.701 7.377-0.41572 0.11263-1.3536 0.11161-2.123 0.04297-0.47556-0.04243-0.60873-0.07158-0.85937-0.10938l-0.04883-0.52344c1.2202 0.33253 2.684 0.30269 4.0273-0.4082 1.4776-0.78193 2.3354-2.1062 3.2363-2.5332 3.7124-1.7595 7.448-3.82 10.77-7.4492 1.6226-1.7728 3.3374-3.2362 5.0938-4.627z" color="#000000" color-rendering="auto" fill="#2d5016" image-rendering="auto" shape-rendering="auto" solid-color="#000000" style="block-progression:tb;isolation:auto;mix-blend-mode:normal;text-decoration-color:#000000;text-decoration-line:none;text-decoration-style:solid;text-indent:0;text-transform:none;white-space:normal"/>
  </g>
  <path d="m44.105 30.642a1.0631 1.0631 0 0 0 -1.043 1.1816l1.5234 15.502 4.5625 33.576a1.0633 1.0633 0 1 0 2.1074 -0.28516l-4.5586-33.537-1.5176-15.463a1.0631 1.0631 0 0 0 -1.0742 -0.97461z" color="#000000" color-rendering="auto" fill="#2d5016" image-rendering="auto" shape-rendering="auto" solid-color="#000000" stroke="#112b00" stroke-linecap="round" stroke-width="1.063" style="block-progression:tb;isolation:auto;mix-blend-mode:normal;text-decoration-color:#000000;text-decoration-line:none;text-decoration-style:solid;text-indent:0;text-transform:none;white-space:normal"/>
  <g transform="translate(2.2874 .41586)">
   <path d="m44.562 51.112c0.1495-2.0132 0.58962-4.2443 2.0625-7.25 1.3464-2.0494 4.1252-2.6665 6.375-3.8125 3.3156-0.67809 6.6912-1.1764 10.5-0.375 3.2708 0.09547 6.5417 2.1445 9.8125 3.4375l8.3125 7.375-2.625-0.0625-8.75 2.5-9.6875 4.875-8.875 1.5-5.0625-1.3125-0.1875-0.75 1.0625-2z" fill="#71c837" stroke="#000" stroke-width=".29055"/>
   <path d="m48 42.799s-0.53534 2.9918 0.1875 4.1875c0.89838 1.4861 4.2657 0.90432 4.5 2.625 0.14908 1.0948-1.8873 1.3551-2.3125 2.375-0.89794 2.154-0.125 7-0.125 7-2.2449-0.3549-4.2922 0.3154-5.5625-4.125-0.39471-2.2123-0.14668-4.9755 0.625-8.1875z" fill="url(#z)" opacity=".304"/>
   <path d="m59.213 38.59c-4.0654 0.09722-8.6554 0.95471-11.828 3.7832-1.9902 1.7743-2.7694 4.5229-3.1543 6.9492-0.18355 1.1569-0.12808 2.4322 0.38867 3.5488 0.47712 1.031 1.3837 1.8492 2.0586 2.5039-0.01561 0.01501-0.01557 0.0099-0.03125 0.02539-0.35313 0.34842-0.79917 0.80118-0.84766 1.5312-0.03494 0.5261 0.1219 1.0321 0.41992 1.3906 0.29802 0.35853 0.68618 0.56615 1.0742 0.71289 0.77608 0.29348 1.6313 0.38283 2.3125 0.54688 3.0327 0.73034 6.1062-0.13957 8.9148-0.7515 3.6544-0.79622 6.5877-3.0086 9.7492-4.2309 3.8411-1.485 7.4669-3.6028 11.264-3.7832 0.96267 0.06649 1.7359 0.32301 2.6445 0.63281 2.0516 0.39808 1.3832-0.41272 0.62891-1.2617 0 0-2.3888-1.5257-3.4395-2.3301-2.1541-1.6493-3.8771-4.2433-6.6309-5.6953-4.0962-2.1599-8.8163-3.6848-13.523-3.5723zm0.03516 1.418c4.3765-0.10466 8.885 1.3301 12.826 3.4082 2.3241 1.2255 5.1662 4.0635 7.5647 5.9071-2.2657-0.25763-5.9274-0.71577-7.8811-0.75479-4.6866-0.09361-10.142 0.08277-13.689 0.84766-2.2348 0.48184-4.8965 1.8321-7.0508 3.0586-1.6164 0.92026-2.6849 1.6154-3.2441 1.9863-0.70804-0.5801-1.3549-1.2823-1.8574-2.1602-0.43898-0.76686-0.43481-1.8249-0.28711-2.7559 0.36272-2.2863 1.1278-4.7124 2.6992-6.1133 2.7641-2.4642 7.0341-3.3309 10.92-3.4238zm8.9043 9.9688c1.2127-0.01683 2.4213-0.01293 3.5781 0.0098 1.4064 0.0276 6.3055-0.17285 7.4842-0.10253-2.8075 0.67775-9.0166 2.2386-11.457 3.3935-3.3159 1.5693-6.3381 3.5417-9.5801 4.248-2.8398 0.61873-5.6528 1.3008-8.2402 0.67773-0.80425-0.19368-1.6134-0.3581-2.1426-0.49219-0.50627-0.12827-0.49375-0.46257-0.58203-0.68555-0.09208-0.23257 0.17538-0.36572 0.42969-0.61524 0.3789-0.37177 0.83274-0.6509 1.364-1.0282 0.53128-0.37727 1.454-0.95865 2.7122-1.675 2.1008-1.1961 4.7318-2.4915 6.6465-2.9043 2.4692-0.53238 6.1491-0.7757 9.7871-0.82617z" color="#000000" color-rendering="auto" fill="#447821" image-rendering="auto" shape-rendering="auto" solid-color="#000000" style="block-progression:tb;isolation:auto;mix-blend-mode:normal;text-decoration-color:#000000;text-decoration-line:none;text-decoration-style:solid;text-indent:0;text-transform:none;white-space:normal"/>
  </g>
  <g transform="translate(2.2874 .41586)">
   <path d="m39.812 30.237-2.5625-2.375c-1.6598-0.55542-3.6393-0.47148-5.625-0.375-0.65828-0.55845-1.2941-1.1618-1.625-2.375-0.23561-1.5245 1.1016-2.1503 1.9375-3.0625l5.6875-2.9375 6.6875-1.0625c0.40256 0.27885 0.93304-0.08188 1.1875 0.9375l0.25 2-2.75 4.3125c-0.50866 1.8041-1.5128 3.4666-3.1875 4.9375z" fill="#8dd35f" stroke="#fc0" stroke-width=".29055"/>
   <path d="m37.816 27.86-3.6747-4.0756c-0.95413-0.64475-1.9427-1.0829-3.0734-0.66813-1.4752 0.90381-1.1249 1.6048-1.069 2.3385l1.0022 1.3363c0.97993-0.5751 1.9599-0.91254 2.9398-0.60132 1.4584 0.22336 2.7728 0.73489 3.8752 1.6703z" fill="url(#v)" opacity=".312"/>
   <path d="m44.725 17.268c-1.7828-0.18283-5.941 0.46339-8.9258 1.8516-1.8701 0.86976-4.3144 2.1303-5.8203 3.8691-0.42384 0.48941-0.46668 0.94612-0.5332 1.4219-0.06652 0.47575-0.08951 0.90766 0.0059 1.3535 0.27064 1.2652 1.3544 1.9348 2.2988 2.2637 1.0514 0.36612 2.0018 0.26313 2.7773 0.18359 0.77551-0.07954 1.3772-0.13307 2.0254 0.08594 0.19325 0.0653 0.8235 0.54528 1.2734 1.0195 0.44993 0.47426 0.7793 0.9082 0.7793 0.9082l1.4102-1.0703c-0.44174-0.56346-0.79108-0.91723-1.2383-1.4023-0.073063-0.07925-0.79237-1.0702-1.7773-2.1797-1.029-1.1591-1.4138-1.4793-2.4666-2.3037-0.47218-0.36973-1.2564-0.60015-1.3889-0.6358 1.0831-0.73526 1.6607-1.1413 2.7394-1.643 0.13779-0.06408 0.95758-0.38482 1.1043-0.44485 0.08841 0.04795 0.44639 0.23974 0.94141 0.5625 0.55232 0.36012 1.1573 0.89577 1.2324 1.0254 0.33727 0.58164 0.64796 2.3829 0.75781 3.9238s0.0957 2.873 0.0957 2.873l1.418 0.01367s0.01296-1.3818-0.10156-2.9883c-0.11452-1.6064-0.27779-3.3854-0.94336-4.5332-0.3832-0.66084-1.037-1.0783-1.6367-1.4688 2.174-0.58978 4.5986-0.94164 5.7383-0.88867 0.185 0.0086 0.29671 0.18772 0.36719 0.44727 0.08248 0.30374 0.0641 0.75331-0.13086 1.2148l1.6309 0.68945c0.3326-0.78737 0.48987-1.6421 0.20898-2.3691-0.40589-1.0507-0.92576-1.6854-1.8418-1.7793zm-12.738 6.6133c0.32178-0.0096 0.74426 0.08608 1.1191 0.20703 0.53083 0.17127 2.3483 1.9211 3.3115 2.9819-0.53779-0.02615-1.6111-0.20144-2.0491-0.15652-0.77266 0.07925-1.4574-0.06815-2.1021-0.29262-0.54184-0.18868-1.0236-0.95431-1.0821-1.2281-0.0082-0.0384-0.2273-0.42326-0.18325-0.73828 0.03041-0.21745 0.29738-0.43034 0.3395-0.49414 0.144-0.21812 0.33358-0.26997 0.64648-0.2793z" color="#000000" color-rendering="auto" fill="#447821" image-rendering="auto" shape-rendering="auto" solid-color="#000000" style="block-progression:tb;isolation:auto;mix-blend-mode:normal;text-decoration-color:#000000;text-decoration-line:none;text-decoration-style:solid;text-indent:0;text-transform:none;white-space:normal"/>
  </g>
  <g transform="translate(2.2874 .41586)">
   <path d="m49.938 18.612 2.375-5.5625 6.625-4.8125 5.875-4 1.4375-2.5 1.1875 0.6875-0.3125 2.6875-4.9375 7.4375-0.4375 6.9375-1.25 2.4375-4.5625-3.3125z" fill="#5aa02c" stroke="#f0f" stroke-width=".29055"/>
   <path d="m50.16 18.309 2.0771-4.9939 1.9445-2.1213c1.8437-0.04952 3.0405 0.825 4.0659 1.9445 1.3832-0.25253 2.7943-1.0065 4.0659 0.7513l-0.35355 4.7288-1.149 3.4471-4.7288-3.182z" fill="url(#ai)" opacity=".304"/>
   <path d="m65.893 1.1133c-0.52641 0.36349-0.70474 1.0769-0.9375 1.5859-0.34149 0.74681-0.77474 1.5029-1.4258 1.9121-0.03058 0.017887-4.4296 2.5911-6.6094 4.1562-1.619 1.1625-3.514 2.2799-4.9238 4.041-0.69783 0.8717-1.2654 2.1793-1.7324 3.332s-0.79102 2.1289-0.79102 2.1289l1.6797 0.56055s-0.02144-1.2593 0.42245-2.3549 1.0642-2.3804 1.4727-2.8906c1.1442-1.4292 3.0082-2.4437 4.7088-3.6648 0.57507-0.41292 1.7987-1.6355 3.4246-2.5609 1.9647-1.1183 4.2662-2.7553 4.8835-3.9551 0.62568 0.28621-2.4576 3.1755-4.0637 4.3384-2.0895 1.5129-2.9589 2.9543-3.2956 3.3496-0.41586 0.48841-0.79432 1.0606-1.1641 1.8281-0.36974 0.76752-0.73546 1.6605-1.0625 2.5156-0.65408 1.7102-1.1543 3.2734-1.1543 3.2734l1.3516 0.43164s0.48796-1.5335 1.125-3.1992c0.31852-0.83284 0.67422-1.6976 1.0156-2.4062 0.3414-0.70869 0.78515-1.6331 0.91981-1.7578 0.41088-0.38059 1.3485-1.5767 2.7267-3.1962 1.6072-1.8886 3.9453-4.633 4.0625-5.0247 0.36035 0.26234-1.6133 3.4227-2.9692 5.557-1.1782 1.8546-2.041 3.4702-2.1058 4.5278-0.13542 2.2109-0.24933 3.588-0.3611 4.6641s-0.59011 1.8489-1.2534 3.1556l1.5781 0.80078c0.73252-1.443 1.0432-2.5581 1.1719-3.7969 0.12867-1.2388 0.10434-2.5815 0.23633-4.7363 0.10441-1.7046 1.8642-3.4166 2.7539-5.0039 1.0345-1.8457 2.144-3.4133 2.4121-4.7578 0.18512-0.92828 0.002318-1.7428-0.33203-2.5039-0.10476-0.23848-0.34727-0.4877-0.78516-0.5918-0.36277-0.086238-0.71743 0.061903-0.97852 0.24219z" color="#000000" color-rendering="auto" fill="#447821" image-rendering="auto" shape-rendering="auto" solid-color="#000000" style="block-progression:tb;isolation:auto;mix-blend-mode:normal;text-decoration-color:#000000;text-decoration-line:none;text-decoration-style:solid;text-indent:0;text-transform:none;white-space:normal"/>
  </g>
  <g transform="translate(2.2874 .41586)">
   <path d="m37.062 32.737 5.4375-5.5625 3.4375-7.125c2.1483-1.2281 4.3126-2.3112 6.625-2.0625 1.9792 0.51504 3.9583 0.64535 5.9375 2.25 2.4749 1.6317 4.6689 3.432 6.3125 5.5625l1.25 2.6875-2.75-2.1875c-2.8636-1.2999-5.7827-2.155-8.8125-2.125-3.2253 0.17547-5.4345 1.5703-7.875 2.6875l-6.375 5.1875 0.25 2.3125c-1.106 0.78087-1.7298 1.3295-3 1.125-0.64049 0.20514-1.2501 0.27121-1.5625-1z" fill="#71c837"/>
   <path d="m41.062 34.112c-1.7001 1.331-3.236 2.0598-4.4375 1.5625-0.98494-0.32003-0.96495-1.1425-0.625-2.125l5.4375-5.25 1.3125-1.4375s5.6659-4.5317 8-4.9375c8.5362-1.4842 13.438 3.3125 13.438 3.3125l1.9375 3.375-2.5-2.125c-2.3043-1.5781-4.7846-1.9246-7.25-2.375-2.6745-0.05459-5.3502-0.09806-8.1875 1.3125l-7.5625 6.3125z" fill="url(#x)" opacity=".312"/>
   <path d="m52.998 17.191c-2.9372-0.16154-5.8529 1.2165-7.9609 3.0879-1.1272 1.0006-1.6973 2.3114-2.1816 3.5449s-0.89633 2.4123-1.5312 3.2871c-1.3915 1.9173-4.9567 5.1219-5.4524 5.7588-0.57777 0.74243-0.73021 1.513-0.6824 2.3232 0.02456 0.41624 0.41323 0.93735 0.95703 1.0918 1.8138 0.51513 2.8005 0.15316 4.4587-1.1112l-0.17338-1.7882c-1.2198 0.93006-2.6056 1.2231-3.467 1.1553-3e-3 -2.36e-4 -0.10864-0.20434-0.10778-0.20734 0.09019-0.31181 0.43979-0.34306 0.45738-0.34735 2.0398-0.49822 3.7845-1.5961 5.418-2.5684 3.0485-1.8146 5.0046-4.8035 7.6953-5.6484 3.5237-1.1065 7.6665-0.93585 11.27 0.24219 1.2076 0.39482 2.1639 0.99153 3.0352 1.9082 1.876 1.9737 2.5165 1.5444 1.2832-1.1953-0.23995-0.53304-0.64485-1.0844-1.4887-2.1537-0.84383-1.0693-1.8612-2.1186-2.8238-2.8873-2.407-1.9222-5.2311-4.3011-8.7051-4.4922zm-0.09766 1.7695c2.69 0.14795 5.1959 1.741 7.6128 3.6711 0.10756 0.0859 1.0503 0.89446 1.8492 1.5521 1.3556 1.1159 2.8844 2.736 2.7826 2.8678-0.08391 0.1087-1.5562-1.1676-3.3082-2.0718-1.3253-0.68403-2.8708-1.0107-3.7533-1.1875-2.8958-0.58019-5.9619-0.41259-8.1852 0.28555-3.5088 1.1018-5.5351 4.3074-8.0703 5.8164-0.44589 0.26541-0.88646 0.50236-1.3281 0.75586 0.81778-0.85548 1.7013-1.7332 2.2578-2.5 0.8507-1.1721 1.2851-2.4985 1.748-3.6777 0.46297-1.1792 0.94278-2.1887 1.707-2.8672 1.8138-1.6101 4.3884-2.771 6.6875-2.6445z" color="#000000" color-rendering="auto" fill="#2d5016" image-rendering="auto" shape-rendering="auto" solid-color="#000000" style="block-progression:tb;isolation:auto;mix-blend-mode:normal;text-decoration-color:#000000;text-decoration-line:none;text-decoration-style:solid;text-indent:0;text-transform:none;white-space:normal"/>
  </g>
  <g transform="translate(2.2874 .41586)">
   <path d="m31 77.862 3.3125-2.6875 0.25-6.3125 3.1875-6.3125 2.0625-1.6875 3.375 1.25c2.192 1.3151 3.9093 3.4609 5.4375 5.9375l4.6875-0.25-0.0625 0.6875-2.6875 2.3125-3 3.5-2.75 1.375c-2.7917 0.65696-5.5833 1.2842-8.375 1.125l-3.3125 1.625c-1.1072 0.27788-2.0096 0.31674-2.125-0.5625z" fill="#5aa02c" stroke="#f60" stroke-width=".29055"/>
   <path d="m30.904 77.815 3.3125-2.6875 0.25-6.3125 3.1875-6.3125 2.0625-1.6875 3.375 1.25c2.192 1.3151 3.9093 3.4609 5.4375 5.9375l4.6875-0.25-0.0625 0.6875-2.6875 2.3125-3 3.5-2.75 1.375c-2.7917 0.65696-5.5833 1.2842-8.375 1.125l-3.3125 1.625c-1.1072 0.27788-2.0096 0.31674-2.125-0.5625z" fill="url(#y)" opacity=".31" stroke="#f60" stroke-width=".29055"/>
   <path d="m37.381 61.818c-0.82242 0.98929-1.2432 2.1589-2.2786 4.1534s-1.4873 3.854-1.5769 5.3037c-0.08611 1.3924 0.38949 2.3245-0.1543 3.5605-0.76706 1.7435-1.2956 1.521-2.5078 2.668-0.55222 0.52252-0.23318 1.4512 0.52344 1.5254 1.0084 0.09882 1.776-0.18356 2.6211-0.41284 0.7618-0.20669 1.2905-0.88444 2.4688-1.0754 2.3667-0.38365 4.0069-0.54737 6.5501-0.85618 2.5432-0.3088 4.8904-1.514 6.4207-3.7279s2.8357-2.8221 4.4628-4.285c0.66958-0.602 0.11746-1.7031-0.76562-1.5273-0.55854 0.11118-0.6748 0.13424-1.5039 0.21484-0.82911 0.0806-1.8379 0.05496-2.1973-0.07031-0.06192-0.02159-0.50283-0.32819-0.81836-0.625-1.0254-0.96464-1.9419-2.8471-3.1504-3.9255-1.5201-1.3565-2.9088-2.2397-4.5662-2.3453-1.6574-0.10556-2.808 0.55936-3.5276 1.425zm3.7207 0.31641c1.8512 0.31588 3.9256 2.3472 5.5469 4.9844 0.18322 0.29802 0.77676 0.69244 0.97568 0.90328-1.0319 0.20689-2.2789-0.09802-3.1358 0.1807-3.4074 1.1082-3.4958 3.0122-4.6845 4.1137s-2.2157 0.97818-3.5002 1.8081c-1.0625 0.68645-0.98779 1.179 0.35945 0.4184 1.292-0.55357 2.5228-0.50305 4.1666-2.0249 1.2386-1.1467 1.0319-2.1888 4.1019-3.0239 1.4161-0.38521 3.2663-0.65638 4.584-1.0768 0.47511-0.15158 3.1602-0.6161 3.0221 0.16615-0.09864 0.55882-3.0721 2.4425-4.099 3.912s-3.0098 2.6677-5.6686 3.0075c-2.6588 0.33982-4.0984 0.93169-6.2926 0.66722-0.23204-0.02797-0.46597 0.03611-0.65039 0.17969-0.9029 0.70294-3.1107 1.9448-3.6044 1.4355 0.10656-0.59261 2.6626-1.7356 2.8769-2.4401 0.51418-1.6904 0.11983-2.7718 0.19336-3.9609 0.07335-1.1862 0.41738-2.7325 1.4566-4.732 1.0393-1.9994 1.4163-3.0674 1.9945-3.7016 0.77222-0.84688 1.4046-0.97899 2.3574-0.8164z" color="#000000" color-rendering="auto" fill="#447821" image-rendering="auto" shape-rendering="auto" solid-color="#000000" style="block-progression:tb;isolation:auto;mix-blend-mode:normal;text-decoration-color:#000000;text-decoration-line:none;text-decoration-style:solid;text-indent:0;text-transform:none;white-space:normal"/>
  </g>
  <g transform="translate(2.2874 .41586)">
   <path d="m19.5 49.174-4.0625 2.875c-2.0198 1.4792-3.5822 2.9583-4.9375 4.4375l-1.9375 3.5625 0.125 3.9375-1.0625 1.1875c-0.60024 1.7689 0.11262 2.8812 0.8125 4l0.8125-2.5 2.125-1.6875 1.6875-2.5625 4.875-2.4375 0.375-5.9375z" fill="#5aa02c" stroke="#0ff" stroke-width=".29055"/>
   <path d="m16.188 51.393c-2.875 2.162-3.2619 4.1073-2.4062 5.9375-1.3586 2.9271-0.45354 3.5088 0 4.7812l4.125-2.6562 1.0312-8.1875 0.71875-2.2188z" fill="url(#ak)" opacity=".31"/>
   <path d="m18.67 49.295c-2.1091 1.1344-9.1771 6.3488-10.297 9.9688-0.54551 1.7634-0.41516 3.0048-0.31836 4.4746-0.38346 0.50532-0.99676 1.7277-1.123 2.4102-0.15433 0.834 0.085706 1.7831 0.74414 2.6309l0.99805 1.2871 0.53711-1.5371c0.21194-0.60752 0.44095-1.1263 0.63476-1.4082 0.04547-0.31693 0.50972-0.5852 0.73242-0.70312 1.1164-1.1484 1.0397-1.0083 1.6576-1.9125 0.36728-0.53748 0.60074-1.1976 1.0858-1.6317 0.3703-0.33146 2.3283-1.1319 3.1545-1.851 0.53229-0.4633 0.2981-0.84024-0.22993-0.65164-1.0135 0.36201-2.7449 1.4068-2.9395 1.4551-0.43707 0.10852-0.6622 0.48623-0.93126 0.78209-0.27252 0.29968-0.42021 0.90601-0.6996 1.2199-0.44354 0.49824-1.0265 1.1098-1.4707 1.6074-0.62134 0.47708-1.9648 1.3617-1.7949 2.5293-0.29437 0.10535-0.81533-2.2693 0.23633-2.7969 0.33493-0.13312 0.63414-0.96361 0.70117-1.1797-0.26827-2.9405-0.03084-3.6442 0.35547-4.832 1.043-3.2072 6.0039-6.8657 9.3594-9.168zm-0.51758 4.3555c-0.62962 0.30796-3.6451 2.3382-4.1113 2.7637-0.4482 0.409-1.6742 2.028-2.1465 2.623-0.94461 1.1902-1.5843 2.3398-1.9082 3.3984-0.17609 0.57561-0.31373 1.4805-0.16016 1.6465 0.12132 0.13114 0.15456-0.30254 0.75-1.4219 0.31701-0.59594 0.92364-2.0597 1.8203-3.1895 0.44834-0.56488 1.7234-2.1644 2.1191-2.5391 0.37764-0.35752 3.1515-2.1826 3.5938-2.3984z" color="#000000" color-rendering="auto" fill="#447821" image-rendering="auto" shape-rendering="auto" solid-color="#000000" style="block-progression:tb;isolation:auto;mix-blend-mode:normal;text-decoration-color:#000000;text-decoration-line:none;text-decoration-style:solid;text-indent:0;text-transform:none;white-space:normal"/>
  </g>
  <g transform="translate(2.2874 .41586)">
   <path d="m33.625 56.612s-5.1875-0.75-5.75-0.8125-4.5 0.5-6.25 1.5625c-2.9302 1.2413-5.5872 3.7116-8.1875 6.4375-2.109 2.5123-2.141 5.7169-2.3125 8.875l1.5625 4.9375 1.875 5.3125 1.375-4.1875 7.125-3.875c2.625-0.98751 5.25-3.7182 7.875-6.5l1.4375-3.875 0.25-3.25c0.40396-1.1179 0.76193-2.5118 1-4.625z" fill="#5aa02c" stroke="#f0f" stroke-width=".29055"/>
   <path d="m33.72 56.713-9.104-1.149c-4.5006 2.0482-7.8605 4.5717-10.96 7.2036-1.4599 3.0232-2.564 6.021-2.3865 8.9272l1.4142 5.6127 1.9887 5.4801 0.57452-7.6014c1.2668-3.2954 2.6547-6.5546 5.0823-9.5017 1.8658-2.0939 2.4224-2.9706 4.6404-4.2426 5.8252-1.3842 5.871 1.818 6.971 4.0852z" fill="url(#ab)" opacity=".31"/>
   <path d="m27.227 55.17c-3.6148 0.02052-6.1928 1.3376-9.0273 3.3496-2.961 2.1018-5.9384 4.3094-6.9531 8.1387-0.72026 2.718-1.3463 5.9889-0.11719 8.8574 0.46544 1.0862 1.2226 2.7861 1.2418 2.8398 0.02573 0.07178 0.34836 1.2052 0.75195 2.3867 0.20822 0.60959 0.46363 1.1947 0.64453 1.6816 0.16594 0.44668 0.61133 1.053 0.8819 1.2869 0.18994 0.1642 0.34378-0.38293 0.5149-0.66982 0.26132-0.43811 0.33249-0.87373 0.43052-1.2976 0.09618-0.41589 0.37665-0.99986 0.49323-1.532 0.11279-0.5148 0.14463-1.0451 0.57534-1.2892 2.8929-1.6396 6.1257-2.7389 8.6963-4.549 2.5268-1.818 5.3925-3.8186 6.959-6.8418 0.73548-1.4195 0.77293-2.939 0.80664-4.332 0.03371-1.3931 0.06513-2.6706 0.49609-3.6934 0.12065-0.28633 0.0338-1.7722 0.42963-1.9921 0.35286-0.19603 0.80931-0.09895 1.1295-0.43725 0.16293-0.17214 0.40123-0.50996-0.02512-0.76354-1.1608-0.69042-2.45-0.4598-3.829-0.50434-1.3158-0.04251-2.3421-0.64865-4.0996-0.63867zm-0.03001 1.2559c1.1804-0.0067 3.6004 0.5308 5.0629 0.66752 0 0-5.853 2.316-8.1832 4.3422-3.7328 3.2458-7.1262 7.3291-8.709 12.016-0.39765 1.1774-0.64236 2.4591-0.34868 2.7208 0.22397 0.19954 0.70188-0.88199 1.4638-2.5158 2.0941-4.4906 3.9435-7.4082 7.4134-10.755 2.2575-2.1777 9.2062-5.3644 9.2062-5.3644 0.18991 1.1014-1.5746 4.3424-1.607 5.6797-0.03321 1.3722-0.24959 2.5338-0.75067 3.5008-1.3002 2.5095-3.7871 4.4552-6.3184 6.2765-2.5954 1.8673-7.8932 4.8428-8.5296 5.1083-0.35504 0.14809-0.53816 0.79692-0.69104 2.0854-0.12113 1.0209-0.48905 1.233-0.48905 1.233-0.14178-0.0118-0.64073-1.3316-0.83348-2.0609-0.49108-1.8581-0.61051-3.342-1.1248-4.5407-0.94105-2.1935-0.48937-5.0993 0.20117-7.7051 0.8377-3.1611 3.3296-5.0643 6.2656-7.1484 2.7284-1.9367 4.765-3.5208 7.9719-3.539z" color="#000000" color-rendering="auto" fill="#2d5016" image-rendering="auto" shape-rendering="auto" solid-color="#000000" style="block-progression:tb;isolation:auto;mix-blend-mode:normal;text-decoration-color:#000000;text-decoration-line:none;text-decoration-style:solid;text-indent:0;text-transform:none;white-space:normal"/>
  </g>
  <g transform="translate(2.2874 .41586)">
   <path d="m21.688 43.799c-1.9289 4.0718-2.9632 8.0319-3.5625 11.938l-0.1875 7.375 0.8125 4.4375 0.5625 1.125c0.8317 0.20342 1.2234-0.91312 1.5625-2.1875l1.9375-7.0625c1.0995-1.3724 2.1891-2.6955 3.125-3.25l5.875-3.125 4.75-2.5625c2.0345-1.1789 2.2305-1.7921 2.125-2.3125l-1.0625-0.75c-1.375-0.71157-2.75-0.52181-4.125-0.25l-3.875 1.9375-3.3125-1.6875 1.9375-2.25-1.875-1.8125c-1.7091-0.4405-3.3108-0.45143-4.6875 0.4375z" fill="#8dd35f" stroke="#cf0" stroke-width=".29055"/>
   <path d="m24.488 42.498c-1.41-0.02592-3.0176 0.42773-3.4375 1.2041-0.5776 1.0679-2.3266 5.5716-2.7246 8.4053-0.31013 2.208-0.9296 3.4682-0.90328 8.1912 0.0056 1.0137 0.36742 3.781 0.54586 5.2073 0.08922 0.71314 0.21098 1.3553 0.38281 1.9102 0.27228 0.87916 0.57603 1.8806 1.2587 2.0711 0.75502-0.13193 1.5197-1.6003 1.7647-2.1688 0.24507-0.56845 0.38083-1.2023 0.52148-1.8809 0.2813-1.3572 0.51554-2.9411 1.1133-4.3872 0.59773-1.4461 0.97718-2.1076 1.8248-3.2122 0.56619-0.73791 2.5066-1.6678 3.8955-2.5891 1.797-1.1921 4.0217-1.7176 6.0708-2.9325 1.245-0.73816 2.9075-1.6734 3.7969-2.4629 0.53667-0.47637 0.95095-0.87856 0.98633-1.5332 0.0411-0.76057-0.32751-1.095-0.89062-1.4121-0.79566-0.44802-1.7429-0.07769-2.2793-0.29297-0.90039-0.36137-1.8008-0.17168-2.7012 0.05664-1.1213 0.28435-1.998 0.6627-2.709 1.1523-0.45714 0.31481-0.73267 0.33876-1.1303 0.39648-0.65047 0.02408-1.0053-0.38922-1.9346-1.1281 0.50587-0.41132 0.56405-0.93279 0.76018-1.5047 0.10262-0.29925 0.19063-0.6669 0.09375-1.0547-0.09688-0.38779-0.36211-0.72883-0.67969-0.95898-0.891-0.64573-2.215-1.0503-3.625-1.0762zm0.1357 1.2065c1.0085 0.01854 2.5348 0.65732 2.5207 1.2012-0.02003 0.77019-0.32361 0.94317-0.85138 1.437-0.14553 0.13618-1.079 0.35711-1.1839 0.87399-0.05247 0.25844 0.08237 0.55773 0.36328 0.73573 0.39666 0.25134 0.58897 0.44312 1.2012 0.5924-3.4401 2.6525-4.6888 6.6691-5.9434 8.293-0.85763 1.1101-1.5276 8.4664-1.6682 10.165-1.7341-4.7915 0.05127-11.737 0.42862-14.424 0.3167-2.2548 2.5085-7.4698 2.5883-7.6211 0.36747-0.6973 1.5167-1.2719 2.5448-1.253zm12.362 4.0628c0.79654 0.16018 0.85376 0.72537 0.47801 1.0908-0.2197 0.21365-2.0305 1.7827-3.2841 2.526-1.8805 1.115-4.3342 1.3646-6.344 2.6979-1.4151 0.93874-3.2059 2.1155-4.1543 3.3516-0.56513 0.73653-0.96995 1.1481-1.7488 3.099-0.45661 1.1438-1.485 7.0954-2.1627 6.4259 0.07108-2.7834 1.3735-8.418 2.2279-9.4859 1.4372-1.7962 2.7168-6.0973 6.188-8.4721 0.13299 0.12595 0.66864 0.38602 0.95386 0.56964 0.55992 0.36046 0.92044 0.19141 1.456 0.06661 0.53552-0.1248 1.277-0.56362 1.7053-0.80643 0.8567-0.48562 1.3582-0.82188 1.5313-0.92188 0.91042-0.52579 2.2526-0.32228 3.1535-0.14109z" color="#000000" color-rendering="auto" fill="#71c837" image-rendering="auto" shape-rendering="auto" solid-color="#000000" style="block-progression:tb;isolation:auto;mix-blend-mode:normal;text-decoration-color:#000000;text-decoration-line:none;text-decoration-style:solid;text-indent:0;text-transform:none;white-space:normal"/>
  </g>
  <g transform="translate(2.2874 .41586)">
   <path d="m28.844 64.705 8.5-8.375 3.0312-2.375 7.6562-5.2812c0.54651 0.09793 0.89871 0.34159 0.78125 0.9375-6.3e-5 0.90101-0.60002 1.5021-0.90625 2.25l-0.40625 8.2812-1.8125 4.0312-4.7812-0.75-5.1875 0.96875-6.125 1z" fill="#c6e9af" stroke="#800080" stroke-width=".29055"/>
   <path d="m46.646 48.738c-0.51141 0.29868-0.99748 0.70547-1.5469 1.209-2.1414 1.5501-5.6005 4.0956-8.1484 5.9629l-6.4902 6.2383c-0.60594 0.57259-1.0487 1.0428-1.3691 1.5508-0.56961 0.81722-0.95173 1.059-0.625 1.7891 0.71442 0.71441 1.4119 0.36514 2.0352 0.29297 0.62329-0.07217 4.3737-0.68421 4.7825-0.80792 1.9416-0.2984 3.8833 0.02324 5.8249-0.8952 0.54258 0.28864 1.0936 0.63428 1.6016 0.67578 0.7571 0.06186 1.4067 2e-3 2.4277 0.09375l0.69336 0.06055 0.41406-0.55664c1.5435-2.0773 2.1162-4.2312 2.2987-6.3324 0.1331-1.5322 0.05875-3.0364 0.0021-4.4625 0.38308-1.0287-0.17605-1.6636-0.04883-2.3262 0.92282-1.0297 1.1304-1.687 0.57422-2.7188-0.83473-0.57252-1.6346-0.12181-2.4258 0.22656zm0.45902 4.8281c0.05368 1.3981 0.05851 2.9058-0.09119 4.3905-0.20276 2.0108-0.689 3.9794-1.7213 5.5763-0.62457-0.01981-2.1447-0.44646-2.4414-0.4707-0.75904-0.1308-1.3533 0.03323-1.9355-0.45898-1.9883 1.2341-5.0565 0.97343-7.3571 1.1015-1.5491 0.08625-3.4718 1.1679-3.6658 0.94882-0.44358-0.50089 6.1602-6.204 8.1557-8.1226 0.37539 0.29119 0.1405 0.65418 1.4105 0.84012 1.0557 0.98865 2.9137 2.6099 4.0861 3.0733-0.4707-1.2192-1.2498-3.8535-2.7035-4.1989 0.29488-0.6516 0.32083-1.3032 0.20414-1.9548l5.967-4.4601c-0.0349 0.08544 0.95495-0.7173 1.3457-0.47396 0.753 0.46896-0.81914 1.8305-1.0234 2.5649-0.21507 0.7734-0.188 1.4752-0.22987 1.6445z" color="#000000" color-rendering="auto" fill="#8dd35f" image-rendering="auto" shape-rendering="auto" solid-color="#000000" style="block-progression:tb;isolation:auto;mix-blend-mode:normal;text-decoration-color:#000000;text-decoration-line:none;text-decoration-style:solid;text-indent:0;text-transform:none;white-space:normal"/>
  </g>
  <g transform="translate(2.2874 .41586)">
   <path d="m51.75 66.549 3.75-4.5625 3.3125-3.375c2.1925-1.007 4-0.66662 5.875-0.5625l0.0625 4.5 1.3125 1.875 1.5625 1.25 0.0625 0.875c-0.71306 0.36125-0.96614 0.03254-1.375-0.0625l-2-0.75c-2.2715 0.37153-4.2029 0.98601-5.3125 2.1875-2.4473 1.8958-4.5318 4.2292-5.8125 6.125l-2.5-0.0625c-0.55028-1.2285-1.5118-2.3029-0.8125-4z" fill="#71c837" stroke="#008000" stroke-width=".29055"/>
   <path d="m53.917 63.696c3.3529-1.3614 6.3614-0.77127 9.3692-0.17678 0.88388 0.50406 1.7678 1.154 2.6516 2.4749l-2.2097-0.22097-6.0546 1.4142-3.3588 1.4584c-1.7864 3.0681-1.4799 4.0431-1.591 5.4359-1.1881 1.0499-1.6459-0.36745-2.3865-0.88388-0.08542-1.8334-0.18776-3.6644 0.53033-5.6127z" fill="url(#aa)" opacity=".302"/>
   <path d="m63.996 57.387c-3.777-0.0189-5.4687 0.95873-6.5723 1.7402-1.4063 0.99586-2.0773 1.8048-2.6133 2.6387s-0.95236 1.6515-2.1133 3.0312c-1.3424 1.5953-2.2346 2.6427-2.8262 3.7422-0.59162 1.0995-0.81588 2.2312-0.59573 3.8092s1.279 2.4152 2.2989 2.6088c0.50991 0.09681 1.0101 0.05734 1.4609-0.13867 0.34554-0.15022 0.60834-0.47965 0.86914-0.82422 2.1617-2.8561 4.4722-5.3853 5.9066-6.0538 0.50524-0.23548 2.677-1.0501 4.5226-1.7352 0.16698-0.06199 0.72284-0.01568 1.1821 0.28125 0.69947 0.45222 1.3492 0.67534 1.916 0.54492 0.56633-0.13031 0.64678-0.67997 0.63672-0.98438-0.0399-1.2066-0.8171-1.1584-1.5686-1.7455-0.45059-0.35206-0.94586-1.5968-1.0467-1.7916-0.48294-0.93341-0.13881-2.121 0.02734-3.1367 0.05854-0.35788 0.14955-0.74722-0.10742-1.2285-0.32754-0.61347-0.78625-0.75485-1.377-0.75781zm-0.13854 1.3621c-0.08031 0.52775-0.12476 1.611-0.06857 2.7119 0.03695 0.72379 0.39365 1.4794 0.73727 1.9513 0.1808 0.2483 1.1398 0.94458 1.8129 1.6017 0.39818 0.38872 1.1272 0.96547 1.0771 1.1277-0.1255 0.4068-0.98933-0.15071-1.4263-0.38312-0.8644-0.4598-2.0513-0.3933-2.3473-0.35628-1.7334 0.21681-3.1774 0.53013-4.7014 0.81676-1.2389 0.233-2.5458 0.36904-3.8809 1.2246-1.3099 0.83944-2.1735 2.5366-2.7461 5.752-0.01239 0.06958-0.64646 0.50721-0.83242 0.4719-0.36109-0.06855-0.5267-0.75073-0.62851-1.5598-0.14951-1.1881 0.1442-1.9241 0.57812-2.7305 0.38034-0.70682 0.99817-1.6987 2.0859-2.7871 1.3212-1.322 2.5884-1.9249 3.7344-2.291 1.53-0.48883 3.1067-0.78335 5.2391-0.37884 1.2241 0.23221 1.6628-0.44442 0.14958-0.70906-1.0966-0.19178-2.0845-0.30732-3.0176-0.3125-0.93305-0.0052-1.7768 0.51713-2.6934 0.38672-0.46735-0.0665-4.8002 2.9867-5.1325 4.2445-0.31126-0.36776 3.6479-4.9847 4.0531-5.3137 0.67766-0.55011 0.79119-1.1378 2.062-2.0378 0.92335-0.65388 2.2687-1.9795 5.9452-1.4293zm-4.5181 8.5119c-1.7335 0.84821-4.8183 3.5537-5.8262 5.5975-0.12539-2.1748 1.319-3.9661 1.9394-4.3187 0.43777-0.24876 3.2318-1.1345 3.8869-1.2788z" color="#000000" color-rendering="auto" fill="#5aa02c" image-rendering="auto" shape-rendering="auto" solid-color="#000000" style="block-progression:tb;isolation:auto;mix-blend-mode:normal;text-decoration-color:#000000;text-decoration-line:none;text-decoration-style:solid;text-indent:0;text-transform:none;white-space:normal"/>
  </g>
 </g>
</svg>
